<?xml version="1.0" encoding="UTF-8"?>
<svg xmlns="http://www.w3.org/2000/svg" xmlns:xlink="http://www.w3.org/1999/xlink" width="192.76pt" height="192.76pt" viewBox="0 0 192.76 192.76" version="1.1">
<g id="surface1">
<path style=" stroke:none;fill-rule:evenodd;fill:rgb(100%,100%,100%);fill-opacity:1;" d="M 0 0.00390625 L 192.757813 0.00390625 L 192.757813 192.761719 L 0 192.761719 L 0 0.00390625 "/>
<path style=" stroke:none;fill-rule:evenodd;fill:rgb(13.699341%,12.199402%,12.5%);fill-opacity:1;" d="M 179.347656 154.261719 L 179.347656 158.84375 L 185.046875 158.871094 L 185.132813 162.277344 C 184.722656 162.867188 183.253906 163.042969 182.253906 163.042969 C 181.167969 163.042969 180.054688 162.894531 178.964844 162.484375 C 177.496094 161.957031 176.175781 161.132813 175.414063 159.753906 C 175.089844 159.195313 174.648438 157.699219 174.503906 155.90625 C 174.386719 154.585938 174.941406 153.234375 175.589844 152.058594 C 176.089844 151.179688 176.941406 150.53125 177.789063 149.972656 C 179.496094 148.800781 180.847656 148.828125 181.519531 148.683594 C 182.695313 148.445313 183.929688 148.535156 185.015625 148.683594 C 186.308594 148.886719 187.042969 149.121094 188.039063 149.503906 C 188.894531 149.855469 190.507813 150.882813 190.507813 150.796875 L 190.507813 145.128906 C 190.507813 144.660156 187.453125 143.867188 186.015625 143.425781 C 185.425781 143.25 181.902344 142.898438 181.082031 143.011719 C 179.964844 143.191406 178.847656 143.335938 177.789063 143.660156 C 176.589844 144.011719 175.382813 144.363281 174.296875 144.953125 C 173.121094 145.570313 171.949219 146.507813 171.066406 147.535156 C 170.214844 148.535156 169.070313 149.679688 168.601563 150.972656 C 168.335938 151.648438 168.128906 152.5 168.011719 153.261719 L 168.011719 144.128906 L 161.964844 144.128906 L 161.964844 159.402344 L 152.917969 144.128906 L 145.605469 144.128906 L 145.632813 153.675781 C 145.253906 151.824219 144.488281 150.089844 143.402344 148.59375 C 140.992188 145.214844 137 142.984375 132.417969 142.925781 C 132.390625 142.925781 132.328125 142.925781 132.269531 142.925781 C 127.984375 142.925781 124.195313 144.835938 121.785156 147.800781 L 126.925781 138.726563 L 119.351563 138.726563 L 111.742188 151.882813 L 104.078125 138.726563 L 97.324219 138.726563 L 98.851563 141.398438 L 108.191406 158.109375 L 102.375 168.621094 L 110.011719 168.621094 L 119.847656 151.265625 C 119.289063 152.734375 119.054688 154.351563 119.171875 156.054688 C 119.613281 163.21875 125.253906 168.738281 132.417969 168.800781 C 132.476563 168.800781 132.507813 168.800781 132.566406 168.800781 C 136.972656 168.800781 140.964844 166.773438 143.402344 163.542969 C 144.519531 162.074219 145.28125 160.371094 145.632813 158.492188 L 145.691406 167.976563 L 151.890625 167.976563 L 151.890625 153.996094 L 160.054688 167.976563 L 168.011719 167.976563 L 168.011719 158.902344 C 168.160156 159.605469 168.21875 160.28125 168.453125 160.8125 C 168.835938 161.664063 169.097656 162.484375 169.6875 163.21875 C 170.304688 164.011719 171.273438 164.804688 172.035156 165.421875 C 172.859375 166.125 173.796875 166.683594 174.765625 167.152344 C 175.734375 167.625 176.765625 167.917969 177.789063 168.183594 C 178.761719 168.417969 179.789063 168.59375 180.816406 168.535156 C 182.34375 168.476563 183.488281 168.59375 184.546875 168.535156 C 185.546875 168.476563 186.691406 168.183594 187.660156 167.886719 C 188.570313 167.625 189.214844 167.449219 189.949219 166.890625 C 191.535156 165.65625 191.59375 165.65625 191.59375 165.511719 L 191.59375 154.261719 Z M 132.417969 163.425781 C 128.894531 163.425781 126.015625 160.046875 126.015625 155.90625 C 126.015625 151.796875 128.894531 148.417969 132.417969 148.417969 C 135.941406 148.417969 138.820313 151.796875 138.820313 155.90625 C 138.820313 160.046875 135.941406 163.425781 132.417969 163.425781 "/>
<path style=" stroke:none;fill-rule:evenodd;fill:rgb(13.699341%,12.199402%,12.5%);fill-opacity:1;" d="M 42.320313 84.335938 C 44.082031 85.160156 46.28125 85.921875 48.839844 86.597656 C 50.128906 86.921875 51.511719 87.242188 52.949219 87.566406 C 59.527344 104.191406 75.445313 116.171875 94.183594 116.933594 C 94.796875 116.933594 95.445313 116.964844 96.0625 116.964844 C 97 116.964844 97.910156 116.933594 98.851563 116.875 C 112.417969 116.054688 124.460938 109.328125 132.417969 99.253906 C 138.613281 91.386719 142.34375 81.488281 142.34375 70.738281 C 142.695313 70.652344 143.050781 70.535156 143.402344 70.445313 C 150.332031 68.566406 154.53125 66.097656 154.53125 63.398438 C 154.53125 60.726563 150.332031 58.257813 143.402344 56.378906 C 142.285156 56.054688 141.082031 55.761719 139.789063 55.496094 C 138.085938 50.59375 135.589844 46.039063 132.417969 42.046875 C 124.460938 31.945313 112.417969 25.21875 98.851563 24.425781 C 97.910156 24.367188 97 24.339844 96.0625 24.339844 C 95.445313 24.339844 94.796875 24.339844 94.183594 24.367188 C 69.542969 25.367188 49.75 45.777344 49.75 70.652344 C 49.75 71.121094 49.75 71.621094 49.777344 72.089844 C 49.453125 72.179688 49.132813 72.265625 48.839844 72.355469 C 46.28125 73.03125 44.082031 73.765625 42.320313 74.585938 C 39.175781 76.054688 37.414063 77.730469 37.414063 79.460938 C 37.414063 81.222656 39.175781 82.867188 42.320313 84.335938 Z M 143.402344 61.578125 C 144.78125 62.164063 145.515625 62.808594 145.515625 63.484375 C 145.515625 64.191406 144.78125 64.835938 143.402344 65.425781 C 143.019531 65.601563 142.578125 65.777344 142.109375 65.921875 C 141.933594 64.191406 141.671875 62.488281 141.289063 60.8125 C 142.109375 61.046875 142.8125 61.3125 143.402344 61.578125 Z M 57.617188 75.320313 C 62.933594 74.558594 69.777344 74.089844 77.179688 74.089844 C 83.460938 74.089844 89.304688 74.410156 94.183594 74.96875 C 95.855469 75.175781 97.410156 75.410156 98.851563 75.644531 C 104.460938 76.613281 107.953125 77.964844 107.953125 79.460938 C 107.953125 80.960938 104.460938 82.308594 98.851563 83.28125 C 97.410156 83.542969 95.855469 83.75 94.183594 83.953125 C 89.304688 84.511719 83.460938 84.835938 77.179688 84.835938 C 70.6875 84.835938 64.636719 84.484375 59.675781 83.898438 C 58.675781 81.164063 57.972656 78.285156 57.617188 75.320313 Z M 132.417969 83.898438 C 127.308594 97.90625 114.300781 108.183594 98.851563 109.269531 C 97.910156 109.328125 97 109.386719 96.0625 109.386719 C 95.445313 109.386719 94.796875 109.359375 94.183594 109.328125 C 80.289063 108.652344 68.25 100.605469 61.964844 89.007813 C 67.984375 89.738281 74.769531 90.152344 81.964844 90.152344 C 86.195313 90.152344 90.304688 90.003906 94.183594 89.738281 C 95.769531 89.621094 97.324219 89.476563 98.851563 89.328125 C 115.003906 87.742188 126.484375 83.925781 126.484375 79.460938 C 126.484375 77.40625 123.988281 75.46875 119.703125 73.824219 C 124.253906 73.589844 128.511719 73.175781 132.417969 72.617188 C 133.210938 72.503906 133.976563 72.382813 134.738281 72.265625 C 134.5625 76.347656 133.769531 80.253906 132.417969 83.898438 Z M 133.035156 59.226563 C 133.886719 61.898438 134.414063 64.691406 134.648438 67.539063 C 133.945313 67.65625 133.183594 67.742188 132.417969 67.832031 C 127.484375 68.449219 121.464844 68.800781 115.003906 68.800781 C 109.070313 68.800781 103.550781 68.507813 98.851563 67.980469 C 97.175781 67.804688 95.621094 67.597656 94.183594 67.363281 C 88.21875 66.394531 84.519531 65.011719 84.519531 63.484375 C 84.519531 61.988281 88.21875 60.609375 94.183594 59.640625 C 95.621094 59.402344 97.175781 59.199219 98.851563 59.023438 C 103.550781 58.492188 109.070313 58.199219 115.003906 58.199219 C 121.464844 58.199219 127.484375 58.550781 132.417969 59.167969 C 132.625 59.167969 132.828125 59.199219 133.035156 59.226563 Z M 94.183594 31.945313 C 94.796875 31.914063 95.445313 31.914063 96.0625 31.914063 C 97 31.914063 97.910156 31.945313 98.851563 32.003906 C 113.007813 33.03125 125.136719 41.753906 131.007813 54 C 124.722656 53.207031 117.558594 52.738281 109.980469 52.738281 C 106.132813 52.738281 102.40625 52.855469 98.851563 53.089844 C 97.265625 53.179688 95.710938 53.296875 94.183594 53.441406 C 77.414063 54.96875 65.460938 58.875 65.460938 63.398438 C 65.460938 65.484375 67.925781 67.421875 72.214844 69.035156 C 66.8125 69.328125 61.789063 69.859375 57.324219 70.5625 C 57.355469 49.917969 73.742188 32.941406 94.183594 31.945313 Z M 48.839844 77.378906 C 49.21875 77.199219 49.691406 77.054688 50.1875 76.878906 C 50.421875 78.757813 50.777344 80.578125 51.246094 82.367188 C 50.335938 82.105469 49.511719 81.839844 48.839844 81.546875 C 47.253906 80.902344 46.402344 80.195313 46.402344 79.460938 C 46.402344 78.726563 47.253906 78.023438 48.839844 77.378906 "/>
<path style=" stroke:none;fill-rule:evenodd;fill:rgb(13.699341%,12.199402%,12.5%);fill-opacity:1;" d="M 30.921875 163.835938 C 31.421875 162.867188 31.628906 161.632813 31.570313 160.578125 C 31.539063 159.34375 31.480469 157.902344 30.804688 156.671875 C 30.71875 156.523438 30.660156 156.40625 30.570313 156.289063 C 29.660156 154.9375 28.222656 153.320313 27.046875 152.234375 C 25.609375 150.914063 23.171875 149.945313 21.613281 148.5625 C 21.113281 148.125 21.054688 147.625 21.203125 147.007813 C 21.4375 145.949219 23.523438 146.246094 24.34375 146.304688 C 26.078125 146.480469 29.277344 148.507813 30.804688 149.210938 C 31.335938 149.445313 31.65625 149.535156 31.65625 149.328125 L 31.65625 140.488281 C 31.480469 140.195313 31.160156 139.929688 30.804688 139.726563 C 30.160156 139.34375 29.425781 139.078125 29.101563 138.960938 C 28.046875 138.519531 27.046875 138.375 25.902344 138.257813 C 24.464844 138.140625 23.023438 138.082031 21.554688 138.167969 C 20.382813 138.257813 19.292969 138.375 18.179688 138.726563 C 16.972656 139.109375 16.09375 139.253906 14.917969 139.578125 C 14.125 139.8125 13.246094 139.050781 11.71875 138.902344 C 9.484375 138.695313 7.753906 139.195313 5.726563 139.988281 C 4.34375 140.578125 3.140625 141.898438 2.496094 143.191406 C 1.878906 144.453125 1.9375 147.097656 2.027344 148.507813 C 2.113281 149.828125 3.082031 151.121094 3.757813 152.265625 C 4.050781 152.734375 7.429688 155.582031 7.78125 155.816406 C 9.28125 156.789063 11.835938 158.226563 12.1875 159.753906 C 12.453125 160.898438 9.339844 160.488281 8.308594 160.3125 C 7.339844 160.136719 1.671875 157.667969 1.671875 157.785156 L 1.671875 166.976563 L 6.253906 168.386719 C 7.398438 168.769531 9.601563 168.800781 11.277344 168.945313 C 13.066406 169.09375 15.566406 168.621094 16.386719 168.300781 C 17.5625 167.859375 17.679688 167.535156 18.589844 167.152344 C 19.03125 166.976563 19.351563 167.566406 19.824219 167.652344 C 22.523438 168.300781 23.40625 167.917969 25.167969 167.710938 C 25.519531 167.683594 25.929688 167.476563 26.285156 167.390625 C 27.398438 167.09375 28.222656 166.597656 29.191406 165.980469 C 29.867188 165.570313 30.367188 164.894531 30.804688 164.101563 C 30.835938 164.011719 30.894531 163.921875 30.921875 163.835938 "/>
<path style=" stroke:none;fill-rule:evenodd;fill:rgb(13.699341%,12.199402%,12.5%);fill-opacity:1;" d="M 94.183594 154.351563 L 88.101563 154.351563 L 88.101563 158.929688 L 93.800781 158.988281 L 93.800781 162.367188 C 93.390625 162.953125 92.007813 163.128906 91.011719 163.128906 C 89.921875 163.160156 88.808594 162.984375 87.722656 162.601563 C 86.253906 162.042969 84.929688 161.222656 84.167969 159.839844 C 83.84375 159.285156 83.402344 157.785156 83.257813 155.996094 C 83.140625 154.671875 83.699219 153.320313 84.34375 152.175781 C 84.84375 151.265625 85.695313 150.621094 86.546875 150.0625 C 88.25 148.886719 89.601563 148.917969 90.277344 148.769531 C 91.449219 148.535156 92.714844 148.625 93.769531 148.769531 C 93.917969 148.800781 94.035156 148.828125 94.183594 148.859375 C 95.210938 149.035156 95.914063 149.238281 96.796875 149.59375 C 97.382813 149.828125 98.292969 150.386719 98.851563 150.707031 C 99.085938 150.824219 99.261719 150.914063 99.261719 150.882813 L 99.261719 145.214844 C 99.261719 145.097656 99.085938 144.980469 98.851563 144.863281 C 97.96875 144.421875 95.886719 143.867188 94.769531 143.511719 C 94.652344 143.484375 94.445313 143.453125 94.183594 143.394531 C 92.976563 143.21875 90.511719 143.011719 89.835938 143.101563 C 88.71875 143.277344 87.601563 143.425781 86.546875 143.75 C 85.371094 144.101563 84.136719 144.453125 83.050781 145.039063 C 81.878906 145.6875 80.703125 146.597656 79.820313 147.625 C 78.96875 148.625 78.207031 149.769531 77.707031 151.0625 C 77.472656 151.738281 77.238281 152.589844 77.117188 153.351563 L 77.117188 144.128906 L 71.097656 144.128906 L 71.097656 159.402344 L 62.023438 144.128906 L 54.800781 144.128906 L 54.800781 167.183594 L 48.839844 152.46875 L 45.429688 144.128906 L 39.703125 144.128906 L 30.804688 165.863281 L 29.925781 167.976563 L 36.0625 167.976563 L 37.972656 163.308594 L 46.929688 163.308594 L 48.839844 167.917969 L 48.867188 167.976563 L 61.027344 167.976563 L 61.027344 153.996094 L 69.160156 167.976563 L 77.117188 167.976563 L 77.117188 158.988281 C 77.265625 159.695313 77.355469 160.371094 77.589844 160.898438 C 77.972656 161.75 78.234375 162.574219 78.824219 163.308594 C 79.410156 164.101563 80.027344 164.894531 80.789063 165.511719 C 81.613281 166.214844 82.550781 166.800781 83.519531 167.242188 C 84.492188 167.710938 85.519531 168.007813 86.546875 168.269531 C 87.542969 168.503906 88.542969 168.5625 89.570313 168.621094 C 90.804688 168.710938 92.066406 168.769531 93.300781 168.621094 C 93.59375 168.59375 93.886719 168.535156 94.183594 168.503906 C 94.945313 168.359375 95.738281 168.183594 96.414063 167.976563 C 97.324219 167.710938 97.96875 167.566406 98.703125 166.976563 C 98.761719 166.949219 98.792969 166.917969 98.851563 166.859375 C 100.289063 165.746094 100.347656 165.746094 100.347656 165.597656 L 100.347656 154.351563 Z M 42.320313 158.460938 L 39.910156 158.460938 L 42.320313 152.941406 L 42.464844 152.617188 L 44.757813 158.460938 L 42.320313 158.460938 "/>
</g>
</svg>
